<svg width="120" height="100" viewBox="0 0 120 100" fill="none" xmlns="http://www.w3.org/2000/svg">
<g clip-path="url(#clip0_57_235)">
<path d="M85.6246 28.9594C86.0839 30.923 86.3517 32.9586 86.4069 35.0468H79.2475L77.5222 36.693H86.4069C86.2655 42.0181 84.743 47.0043 82.1892 51.3096H73.1483V40.8688L71.5021 42.4405V51.3096H62.209L60.4841 52.9565H71.5021V61.9976C67.1956 64.5516 62.209 66.0737 56.8847 66.2159V56.3924L55.2384 57.964V66.2159C49.9131 66.0737 44.9269 64.5516 40.6214 61.9976V52.9565H46.8897L45.3033 51.3096H41.177L38.9752 52.9833V60.9491C37.1812 59.7229 35.525 58.3102 34.0338 56.7377L29.6759 60.0503C30.0265 60.4321 30.3845 60.8089 30.754 61.1777C37.5142 67.9378 46.5015 71.661 56.0611 71.661C65.6218 71.661 74.6092 67.9378 81.3694 61.1777C88.1294 54.4181 91.8527 45.4301 91.8527 35.8699C91.8527 32.0185 91.2467 28.2611 90.0837 24.7037L85.6246 28.9594ZM73.1483 52.9565H81.1404C78.9984 56.0918 76.2827 58.8066 73.1483 60.9491V52.9565ZM27.4378 45.9802C26.4037 43.062 25.8027 39.9404 25.715 36.693H34.3519L35.5788 35.0468H25.715C25.8579 29.722 27.3801 24.7355 29.934 20.4302H38.9753V30.4849L40.6215 28.2741V20.4304H55.2387V33.4972L56.8848 31.921V20.4304H68.8867L70.6071 18.7835H56.8847V5.52395C62.209 5.6661 67.1956 7.1885 71.5021 9.74229V17.9272L73.1483 16.3511V10.791C74.2672 11.5557 75.3327 12.3938 76.3381 13.2978L80.2816 9.5213C73.6602 3.42213 65.1184 0.0788574 56.0611 0.0788574C46.5015 0.0788574 37.5143 3.80202 30.754 10.5621C23.9937 17.3217 20.2706 26.3099 20.2706 35.8699C20.2706 41.2144 21.4349 46.3797 23.642 51.0767L27.4378 45.9802ZM30.982 18.7834C33.1251 15.6481 35.8393 12.934 38.9752 10.7908V18.7834H30.982ZM40.6214 18.7834V9.74229C44.9269 7.1885 49.9131 5.6661 55.2384 5.52395V18.7834H40.6214Z" fill="black"/>
<path d="M84.7072 10.4538L81.9905 7.88621L81.5573 7.47689L82.7115 7.19528L89.4515 5.55341L100.145 2.94751L97.5902 16.7791L97.4188 17.7017L96.6689 21.761L94.9088 20.0972L92.1922 17.529L53.5122 54.4499L42.8935 43.4256L19.1454 63.3684L43.8665 30.1681L53.8852 39.9618L84.7072 10.4538Z" fill="black"/>
</g>
<path d="M8.87722 86.5078C8.81756 85.9496 8.56614 85.5149 8.12296 85.2038C7.68404 84.8928 7.11302 84.7372 6.40989 84.7372C5.91557 84.7372 5.49157 84.8118 5.13787 84.9609C4.78418 85.1101 4.51358 85.3125 4.32608 85.5682C4.13858 85.8239 4.0427 86.1158 4.03844 86.4439C4.03844 86.7166 4.10023 86.9531 4.22381 87.1534C4.35165 87.3537 4.52424 87.5241 4.74157 87.6648C4.9589 87.8011 5.19966 87.9162 5.46387 88.0099C5.72807 88.1037 5.99441 88.1825 6.26287 88.2464L7.49015 88.5533C7.98446 88.6683 8.45961 88.8239 8.91557 89.0199C9.3758 89.2159 9.78702 89.4631 10.1492 89.7614C10.5157 90.0597 10.8055 90.4197 11.0186 90.8416C11.2316 91.2635 11.3382 91.7578 11.3382 92.3246C11.3382 93.0916 11.1421 93.767 10.7501 94.3509C10.358 94.9304 9.79128 95.3842 9.0498 95.7124C8.31259 96.0362 7.41983 96.1982 6.37154 96.1982C5.35307 96.1982 4.46884 96.0405 3.71884 95.7251C2.9731 95.4098 2.38929 94.9496 1.96742 94.3445C1.5498 93.7393 1.32395 93.0021 1.28986 92.1328H3.62296C3.65705 92.5888 3.79767 92.968 4.04483 93.2706C4.29199 93.5732 4.61373 93.799 5.01003 93.9482C5.4106 94.0973 5.85804 94.1719 6.35236 94.1719C6.86799 94.1719 7.31969 94.0952 7.70748 93.9418C8.09952 93.7841 8.40634 93.5668 8.62793 93.2898C8.84952 93.0085 8.96245 92.6804 8.96671 92.3054C8.96245 91.9645 8.86231 91.6832 8.66628 91.4616C8.47026 91.2358 8.1954 91.0483 7.84171 90.8991C7.49228 90.7457 7.08319 90.6094 6.61444 90.4901L5.12509 90.1065C4.04696 89.8295 3.19469 89.4098 2.56827 88.8473C1.94611 88.2805 1.63503 87.5284 1.63503 86.5909C1.63503 85.8196 1.84384 85.1442 2.26145 84.5646C2.68333 83.9851 3.25648 83.5355 3.98091 83.2159C4.70534 82.892 5.52566 82.7301 6.44185 82.7301C7.37083 82.7301 8.18475 82.892 8.88361 83.2159C9.58674 83.5355 10.1386 83.9808 10.5392 84.5518C10.9397 85.1186 11.1464 85.7706 11.1592 86.5078H8.87722ZM12.877 84.897V82.9091H23.3216V84.897H19.2755V96H16.9232V84.897H12.877ZM25.4342 96H22.903L27.5116 82.9091H30.4392L35.0542 96H32.523L29.0265 85.5938H28.9243L25.4342 96ZM25.5173 90.8672H32.4207V92.772H25.5173V90.8672ZM36.7785 96V82.9091H41.6876C42.6933 82.9091 43.537 83.0838 44.2188 83.4332C44.9049 83.7827 45.4227 84.2727 45.7721 84.9034C46.1258 85.5298 46.3026 86.2607 46.3026 87.0959C46.3026 87.9354 46.1237 88.6641 45.7657 89.282C45.412 89.8956 44.89 90.3707 44.1997 90.7074C43.5093 91.0398 42.6613 91.206 41.6556 91.206H38.1592V89.2372H41.336C41.9241 89.2372 42.4056 89.1562 42.7806 88.9943C43.1556 88.8281 43.4326 88.5874 43.6116 88.272C43.7948 87.9524 43.8865 87.5604 43.8865 87.0959C43.8865 86.6314 43.7948 86.2351 43.6116 85.907C43.4284 85.5746 43.1492 85.3232 42.7742 85.1527C42.3992 84.978 41.9156 84.8906 41.3232 84.8906H39.1499V96H36.7785ZM43.5413 90.0682L46.782 96H44.1357L40.9525 90.0682H43.5413ZM47.9102 84.897V82.9091H58.3548V84.897H54.3087V96H51.9564V84.897H47.9102ZM67.4827 86.5078C67.423 85.9496 67.1716 85.5149 66.7284 85.2038C66.2895 84.8928 65.7185 84.7372 65.0154 84.7372C64.521 84.7372 64.097 84.8118 63.7433 84.9609C63.3896 85.1101 63.1191 85.3125 62.9316 85.5682C62.7441 85.8239 62.6482 86.1158 62.6439 86.4439C62.6439 86.7166 62.7057 86.9531 62.8293 87.1534C62.9571 87.3537 63.1297 87.5241 63.347 87.6648C63.5644 87.8011 63.8051 87.9162 64.0693 88.0099C64.3335 88.1037 64.5999 88.1825 64.8683 88.2464L66.0956 88.5533C66.5899 88.6683 67.0651 88.8239 67.521 89.0199C67.9813 89.2159 68.3925 89.4631 68.7547 89.7614C69.1212 90.0597 69.411 90.4197 69.624 90.8416C69.8371 91.2635 69.9436 91.7578 69.9436 92.3246C69.9436 93.0916 69.7476 93.767 69.3556 94.3509C68.9635 94.9304 68.3968 95.3842 67.6553 95.7124C66.9181 96.0362 66.0253 96.1982 64.977 96.1982C63.9585 96.1982 63.0743 96.0405 62.3243 95.7251C61.5786 95.4098 60.9948 94.9496 60.5729 94.3445C60.1553 93.7393 59.9294 93.0021 59.8953 92.1328H62.2284C62.2625 92.5888 62.4031 92.968 62.6503 93.2706C62.8975 93.5732 63.2192 93.799 63.6155 93.9482C64.0161 94.0973 64.4635 94.1719 64.9578 94.1719C65.4735 94.1719 65.9252 94.0952 66.3129 93.9418C66.705 93.7841 67.0118 93.5668 67.2334 93.2898C67.455 93.0085 67.5679 92.6804 67.5722 92.3054C67.5679 91.9645 67.4678 91.6832 67.2718 91.4616C67.0757 91.2358 66.8009 91.0483 66.4472 90.8991C66.0977 90.7457 65.6887 90.6094 65.2199 90.4901L63.7306 90.1065C62.6524 89.8295 61.8002 89.4098 61.1737 88.8473C60.5516 88.2805 60.2405 87.5284 60.2405 86.5909C60.2405 85.8196 60.4493 85.1442 60.8669 84.5646C61.2888 83.9851 61.8619 83.5355 62.5864 83.2159C63.3108 82.892 64.1311 82.7301 65.0473 82.7301C65.9763 82.7301 66.7902 82.892 67.4891 83.2159C68.1922 83.5355 68.7441 83.9808 69.1446 84.5518C69.5452 85.1186 69.7519 85.7706 69.7646 86.5078H67.4827ZM83.2631 87.326H80.8724C80.8042 86.9339 80.6785 86.5866 80.4953 86.2841C80.3121 85.9773 80.0841 85.7173 79.8113 85.5043C79.5386 85.2912 79.2275 85.1314 78.8781 85.0249C78.5329 84.9141 78.1601 84.8587 77.7595 84.8587C77.0479 84.8587 76.4172 85.0376 75.8675 85.3956C75.3177 85.7493 74.8873 86.2692 74.5763 86.9553C74.2652 87.6371 74.1096 88.4702 74.1096 89.4545C74.1096 90.456 74.2652 91.2997 74.5763 91.9858C74.8916 92.6676 75.322 93.1832 75.8675 93.5327C76.4172 93.8778 77.0457 94.0504 77.7531 94.0504C78.1452 94.0504 78.5116 93.9993 78.8525 93.897C79.1977 93.7905 79.5067 93.6349 79.7794 93.4304C80.0564 93.2259 80.2886 92.9744 80.4761 92.6761C80.6679 92.3778 80.8 92.0369 80.8724 91.6534L83.2631 91.6662C83.1736 92.2884 82.9797 92.8722 82.6814 93.4176C82.3873 93.9631 82.0017 94.4446 81.5244 94.8622C81.0471 95.2756 80.4889 95.5994 79.8497 95.8338C79.2105 96.0639 78.501 96.179 77.7211 96.179C76.5706 96.179 75.5436 95.9126 74.6402 95.38C73.7368 94.8473 73.0251 94.0781 72.5052 93.0724C71.9854 92.0668 71.7254 90.8608 71.7254 89.4545C71.7254 88.044 71.9875 86.8381 72.5116 85.8366C73.0358 84.831 73.7496 84.0618 74.653 83.5291C75.5564 82.9964 76.5791 82.7301 77.7211 82.7301C78.4498 82.7301 79.1274 82.8324 79.7538 83.0369C80.3802 83.2415 80.9385 83.5419 81.4285 83.9382C81.9186 84.3303 82.3213 84.8118 82.6366 85.3828C82.9562 85.9496 83.165 86.5973 83.2631 87.326ZM86.9577 96H84.4264L89.0351 82.9091H91.9626L96.5777 96H94.0464L90.55 85.5938H90.4477L86.9577 96ZM87.0407 90.8672H93.9442V92.772H87.0407V90.8672ZM98.3019 96V82.9091H103.211C104.217 82.9091 105.06 83.0966 105.742 83.4716C106.428 83.8466 106.946 84.3622 107.296 85.0185C107.649 85.6705 107.826 86.4119 107.826 87.2429C107.826 88.0824 107.649 88.8281 107.296 89.4801C106.942 90.1321 106.42 90.6456 105.729 91.0206C105.039 91.3913 104.189 91.5767 103.179 91.5767H99.9255V89.6271H102.859C103.448 89.6271 103.929 89.5249 104.304 89.3203C104.679 89.1158 104.956 88.8345 105.135 88.4766C105.318 88.1186 105.41 87.7074 105.41 87.2429C105.41 86.7784 105.318 86.3693 105.135 86.0156C104.956 85.6619 104.677 85.3871 104.298 85.1911C103.923 84.9908 103.439 84.8906 102.847 84.8906H100.673V96H98.3019ZM109.886 96V82.9091H118.4V84.897H112.257V88.451H117.959V90.4389H112.257V94.0121H118.451V96H109.886Z" fill="black"/>
<defs>
<clipPath id="clip0_57_235">
<rect width="82" height="72" fill="white" transform="translate(19)"/>
</clipPath>
</defs>
</svg>
