<svg width="82" height="72" viewBox="0 0 82 72" fill="none" xmlns="http://www.w3.org/2000/svg">
<g clip-path="url(#clip0_56_229)">
<path d="M66.6246 28.9594C67.0839 30.923 67.3517 32.9586 67.4069 35.0468H60.2475L58.5222 36.693H67.4069C67.2655 42.0181 65.743 47.0043 63.1892 51.3096H54.1483V40.8688L52.5021 42.4405V51.3096H43.209L41.4841 52.9565H52.5021V61.9976C48.1956 64.5516 43.209 66.0737 37.8847 66.2159V56.3924L36.2384 57.964V66.2159C30.9131 66.0737 25.9269 64.5516 21.6214 61.9976V52.9565H27.8897L26.3033 51.3096H22.177L19.9752 52.9833V60.9491C18.1812 59.7229 16.525 58.3102 15.0338 56.7377L10.6759 60.0503C11.0265 60.4321 11.3845 60.8089 11.754 61.1777C18.5142 67.9378 27.5015 71.661 37.0611 71.661C46.6218 71.661 55.6092 67.9378 62.3694 61.1777C69.1294 54.4181 72.8527 45.4301 72.8527 35.8699C72.8527 32.0185 72.2467 28.2611 71.0837 24.7037L66.6246 28.9594ZM54.1483 52.9565H62.1404C59.9984 56.0918 57.2827 58.8066 54.1483 60.9491V52.9565ZM8.43778 45.9802C7.40368 43.062 6.80266 39.9404 6.71505 36.693H15.3519L16.5788 35.0468H6.71505C6.85788 29.722 8.38014 24.7355 10.934 20.4302H19.9753V30.4849L21.6215 28.2741V20.4304H36.2387V33.4972L37.8848 31.921V20.4304H49.8867L51.6071 18.7835H37.8847V5.52395C43.209 5.6661 48.1956 7.1885 52.5021 9.74229V17.9272L54.1483 16.3511V10.791C55.2672 11.5557 56.3327 12.3938 57.3381 13.2978L61.2816 9.5213C54.6602 3.42213 46.1184 0.0788574 37.0611 0.0788574C27.5015 0.0788574 18.5143 3.80202 11.754 10.5621C4.99366 17.3217 1.27063 26.3099 1.27063 35.8699C1.27063 41.2144 2.43487 46.3797 4.64199 51.0767L8.43778 45.9802ZM11.982 18.7834C14.1251 15.6481 16.8393 12.934 19.9752 10.7908V18.7834H11.982ZM21.6214 18.7834V9.74229C25.9269 7.1885 30.9131 5.6661 36.2384 5.52395V18.7834H21.6214Z" fill="black"/>
<path d="M65.7072 10.4538L62.9905 7.88621L62.5573 7.47689L63.7115 7.19528L70.4515 5.55341L81.1454 2.94751L78.5902 16.7791L78.4188 17.7017L77.6689 21.761L75.9088 20.0972L73.1922 17.529L34.5122 54.4499L23.8935 43.4256L0.145386 63.3684L24.8665 30.1681L34.8852 39.9618L65.7072 10.4538Z" fill="black"/>
</g>
<defs>
<clipPath id="clip0_56_229">
<rect width="82" height="72" fill="white"/>
</clipPath>
</defs>
</svg>
